# Blender 4.1.1
# www.blender.org
mtllib door2.mtl
o Cube
v 0.000000 0.000000 -0.050000
v 0.000000 2.400000 -0.050000
v 1.312500 0.000000 -0.050000
v 1.312500 2.400000 -0.050000
v 0.000000 0.000000 0.050000
v 0.000000 2.400000 0.050000
v 1.312500 0.000000 0.050000
v 1.312500 2.400000 0.050000
vn -0.0000 -0.0000 -1.0000
vn 1.0000 -0.0000 -0.0000
vn -0.0000 -0.0000 1.0000
vn -1.0000 -0.0000 -0.0000
vn -0.0000 -1.0000 -0.0000
vn -0.0000 1.0000 -0.0000
vt 0.476744 0.025000
vt 0.476744 0.975000
vt 0.000000 0.975000
vt 0.000000 0.025000
vt 0.976744 0.037500
vt 1.000000 0.037500
vt 1.000000 0.962500
vt 0.976744 0.962500
vt 0.976744 0.025000
vt 0.976744 0.975000
vt 0.500000 0.975000
vt 0.500000 0.025000
vt 0.511628 0.025000
vt 0.511628 0.000000
vt 0.976744 0.000000
vt 0.976744 1.000000
vt 0.511628 1.000000
vt 0.511628 0.975000
s 0
usemtl Material.002
f 1/1/1 2/2/1 4/3/1 3/4/1
f 3/5/2 4/6/2 8/7/2 7/8/2
f 7/9/3 8/10/3 6/11/3 5/12/3
f 5/12/4 6/11/4 2/2/4 1/1/4
f 3/13/5 7/14/5 5/15/5 1/9/5
f 8/10/6 4/16/6 2/17/6 6/18/6
